<?xml version="1.0" encoding="utf-8"?>
<!-- Generator: Adobe Illustrator 16.0.0, SVG Export Plug-In . SVG Version: 6.00 Build 0)  -->
<!DOCTYPE svg PUBLIC "-//W3C//DTD SVG 1.1//EN" "http://www.w3.org/Graphics/SVG/1.1/DTD/svg11.dtd">
<svg version="1.1" id="Layer_1" xmlns="http://www.w3.org/2000/svg" xmlns:xlink="http://www.w3.org/1999/xlink" x="0px" y="0px"
	 width="240px" height="120px" viewBox="0 0 240 120" enable-background="new 0 0 240 120" xml:space="preserve">
<path fill="#828282" d="M19.67,42.028h10.997V20.036H19.67V42.028z M26.543,22.785h2.75v2.749h-2.75V22.785z M26.543,28.283h2.75
	v2.75h-2.75V28.283z M26.543,33.781h2.75v2.75h-2.75V33.781z M21.044,22.785h2.75v2.749h-2.75V22.785z M21.044,28.283h2.75v2.75
	h-2.75V28.283z M21.044,33.781h2.75v2.75h-2.75V33.781z M32.042,29.658l4.582-2.75l5.04,2.75v1.375h-9.622V29.658z M32.042,42.028
	h2.749V36.53h4.125v5.498h2.749V31.719h-9.623V42.028z"/>
<path fill="#828282" d="M218.12,23.539V20.47h-15.349v3.069h-4.604v1.534v1.536c0,2.543,2.061,4.604,4.604,4.604
	c0.48,0,0.945-0.074,1.381-0.21c1.108,1.583,2.799,2.729,4.758,3.127v4.757h-1.533c-1.696,0-3.07,1.375-3.07,3.07h12.278
	c0-1.696-1.375-3.07-3.068-3.07h-1.537V34.13c1.962-0.398,3.65-1.543,4.758-3.127c0.438,0.137,0.9,0.21,1.383,0.21
	c2.544,0,4.605-2.061,4.605-4.604v-1.536v-1.534H218.12z M202.771,29.391c-1.534,0-2.782-1.248-2.782-2.782v-1.536h2.782v1.536
	c0,0.963,0.178,1.886,0.504,2.736C203.111,29.374,202.942,29.391,202.771,29.391z M220.902,26.609c0,1.534-1.248,2.782-2.782,2.782
	c-0.172,0-0.34-0.017-0.503-0.045c0.325-0.851,0.503-1.772,0.503-2.735v-1.536h2.782V26.609z"/>
<path fill="#828282" d="M90.569,19.469c-6.027,0-10.931,4.815-11.069,10.811c0.129-5.23,4.106-9.427,8.993-9.427
	c4.969,0,8.995,4.335,8.995,9.687c0,1.147,0.929,2.076,2.076,2.076c1.147,0,2.076-0.929,2.076-2.076
	C101.641,24.425,96.685,19.469,90.569,19.469z M90.569,41.611c6.027,0,10.93-4.816,11.068-10.812
	c-0.128,5.23-4.105,9.429-8.991,9.429c-4.969,0-8.997-4.338-8.997-9.688c0-1.148-0.93-2.077-2.077-2.077
	c-1.146,0-2.076,0.93-2.076,2.077C79.497,36.655,84.454,41.611,90.569,41.611z"/>
<path fill="#828282" d="M158.811,33.963l-0.058-0.063l-0.084-0.036l0.021-0.145l-0.073-0.074l-0.044-0.089l0.021-0.08l-0.042-0.036
	l-0.005-0.065l-0.098-0.048l-0.003-0.079l-0.005-0.078l-0.053-0.035l-0.034-0.065l-0.1-0.1l0.036-0.08l0.022-0.093l-0.042-0.063
	l-0.006-0.09l-0.104,0.07l-0.019-0.104l-0.016-0.064l-0.048-0.077l0.023-0.079l-0.058-0.089l-0.083-0.035l-0.005-0.064l-0.096-0.049
	l-0.086-0.061l-0.045-0.091l-0.069,0.004l-0.07-0.048l-0.016-0.066l-0.081,0.058l-0.057-0.05l-0.006-0.117l-0.044-0.063
	l-0.067,0.002l-0.028-0.05l-0.12,0.056l-0.072-0.061l-0.079,0.03l-0.086-0.048l0.564-0.625l0.095-0.017l0.092-0.056l0.023-0.081
	l0.066-0.028l0.038-0.066l-0.019-0.078l-0.097-0.035l-0.017-0.051l-0.068-0.037l-0.006-0.117l-0.056-0.023l-0.019-0.065
	l-0.018-0.103l0.048-0.042l-0.059-0.088l-0.104,0.057l-0.071-0.049l-0.059-0.075l-0.003-0.078l-0.041-0.086l-0.019-0.02l0.02-0.067
	l-0.058-0.029l0.075-0.113l-0.026-0.074l-0.06-0.063l0.027-0.121l-0.027-0.097l-0.084-0.106l-0.063-0.073l-0.039-0.107l0.018-0.087
	l0.042-0.09l-0.018-0.129L157,28.641l0.042-0.068l-0.029-0.097l0.055-0.056l-0.038-0.064l0.031-0.077l-0.048-0.064l0.017-0.054
	l-0.08-0.04l-0.002-0.065l0.087-0.059l0.053-0.079l0.078-0.068l0.063-0.069l0.045-0.067l-0.031-0.085l-0.035-0.074l0.041-0.079
	l-0.027-0.086l0.061-0.134l0.053-0.067l0.065-0.102l0.088-0.07l-0.017-0.086l-0.081-0.03l-0.041-0.085l0.046-0.045l-0.071-0.062
	l-0.095-0.051l-0.1,0.006l-0.079,0.016l-0.12,0.037l-0.087,0.046l-0.102-0.017l-0.103-0.048l-0.088,0.003l-0.099,0.048L156.41,26.8
	l-0.122,0.017l-0.104-0.041l-0.099,0.049l-0.074,0.045l-0.183-0.035l-0.238,0.063l-0.081-0.027l-0.148-0.047l-0.145,0.006
	l-0.143-0.005l-0.137-0.014l-0.099-0.006l-0.042,0.076l-0.072,0.08l-0.1,0.045l-0.079-0.038l-0.051-0.073l-0.051,0.056l-0.092-0.005
	l-1.113-1.246l-0.164,0.008l-0.076,0.046l-0.089,0.003l-0.095-0.071l-0.12-0.016l-0.093-0.029l-0.071-0.071l-0.098,0.025
	l-0.093-0.06l-0.028,0.097l-0.069-0.061l-0.121,0.016l-0.078,0.036l-0.066,0.046l-0.088,0.025l-0.088,0.048l-0.1-0.027l-0.081-0.05
	l-0.144,0.027l-0.081-0.028l-0.087,0.036l-0.1-0.016l-0.128-0.048l-0.142,0.05l-0.079-0.052l-0.107,0.049l-0.095-0.072l-0.087,0.036
	l-0.065,0.056l-0.146-0.015l-0.091,0.015l-0.088-0.007l-0.149-0.27l-0.081-0.092l0.039-0.077l-0.046-0.083l-0.091-0.007
	l-0.156,0.007l-0.111-0.017l0.016-0.086l-0.136-0.068l0.041-0.067l-0.051-0.105l0.029-0.086l-0.025-0.105l0.037-0.108l-0.025-0.084
	l0.003-0.14l0.076-0.045l0.063-0.089l-0.049-0.062l0.063-0.089l0.02-0.086l-0.029-0.104l-0.038-0.095l-0.444-0.385l-0.122-0.455
	l-0.037-0.245l-0.09-0.038l-0.103-0.038l-0.055,0.055l-0.088,0.026l-0.048-0.084l0.063-0.046l-0.05-0.073l-0.071-0.114l-0.097,0.089
	l-0.073,0.057l-0.122,0.048l-0.132,0.049l-0.146-0.015l0.067-0.025l0.061-0.077l-0.003-0.076l0.05-0.118l0.061-0.153l0.084-0.112
	l0.107-0.056l0.095-0.133l0.038-0.118l0.054-0.078l0.062-0.089l-0.104-0.069l0.028-0.109l0.059-0.164l0.016-0.117l-0.019-0.117
	l0.053-0.087l0.074-0.079l0.03-0.065l0.063-0.077l0.008-0.063l-0.004-0.065l0.064-0.066l0.042-0.067l0.04-0.076l0.051-0.131
	l0.038-0.098l0.041-0.086l0.064-0.079l0.005-0.074l0.106-0.101l0.117-0.082l0.146-0.028l0.075-0.078l0.071-0.109l0.135-0.23
	l0.052-0.089l0.062-0.098l0.029-0.076l0.072-0.079l0.121-0.038l0.211-0.041l0.118-0.058l0.188-0.051l0.122-0.027l0.129-0.092
	l0.062-0.109l0.142-0.07l0.106-0.091l-0.007-0.096l-0.072-0.124l-0.061-0.106l-0.104-0.091l-0.137-0.08l-0.183-0.056l-0.149-0.068
	l-0.1-0.027l-0.134,0.006l-0.063,0.078l0.07,0.082l-0.039,0.088l-0.147-0.025l-0.072,0.068l0.071,0.104l-0.041,0.086l-0.132,0.006
	l-0.062-0.092l-0.102-0.018l-0.074,0.046l-0.015,0.192l-0.081,0.165l-0.051,0.099l-0.13,0.057l-0.076,0.046l-0.053,0.077
	l-0.13,0.059l-0.125-0.026l-0.1,0.015l-0.063,0.046l-0.102,0.016l-0.118,0.069l-0.107,0.08l-0.072,0.1l-0.12,0.038l-0.088,0.067
	l-0.005,0.086l-0.122,0.016l-0.075,0.089l-0.099,0.319l-0.109,0.278h-0.189h-0.134h-0.085l-0.146-0.213l-0.102-0.122l-0.124-0.073
	l-0.146-0.067l-0.103-0.196l-0.078-0.192h-0.089l-0.03,0.251l-0.054,0.107l-0.041,0.119l0.006,0.148l0.018,0.158l-0.108,0.054
	l-0.19,0.033l-0.155-0.025l-0.113-0.015l-0.146-0.025l-0.052,0.068l-0.075,0.045l-0.062-0.093l-0.113-0.006l-0.142,0.028
	l-0.086,0.068l-0.064,0.078l-0.075,0.025l-0.021,0.054l-0.098,0.037l-0.101,0.003l-0.051,0.078l-0.006,0.086l-0.122,0.037
	l-0.1,0.068l-0.07,0.078l-0.075,0.1l-0.005,0.139l-0.006,0.074l0.035,0.053l-0.02,0.064l0.019,0.106l0.026,0.094l0.072,0.083
	l0.081,0.062l-0.109,0.057l-0.076,0.025l0.006-0.096l-0.057-0.041l-0.051,0.079l0.003,0.116l-0.036,0.141l-0.016,0.129l-0.063,0.1
	l0.071,0.082l0.061,0.073l0.037,0.116l0.006,0.096l-0.097,0.069l-0.131,0.081l-0.089-0.028l-0.113-0.006l-0.131,0.028l-0.077,0.025
	l-0.088,0.036l-0.098,0.059l-0.007,0.085l-0.064,0.056l-0.085,0.068l0.006,0.108l-0.086,0.078l-0.055,0.045l-0.029,0.087
	l-0.098,0.047l-0.017,0.087l-0.064,0.045l-0.064,0.046l-0.086,0.057l-0.087,0.057l-0.098,0.069l-0.072,0.057l-0.021,0.075
	l-0.079-0.008l-0.145,0.018l-0.097,0.025l-0.064,0.079l0.105,0.09l0.103,0.049l0.094,0.125l-0.015,0.118l-0.018,0.107l0.05,0.105
	l0.006,0.096l0.018,0.138l-0.037,0.12l-0.098,0.046l-0.137-0.025l-0.023-0.053l0.019-0.066l-0.049-0.06l-0.016-0.075l-0.035-0.083
	l0.028-0.076l-0.05-0.093l-0.112-0.006l-0.06-0.061l-0.087-0.167l-0.123-0.037l-0.093-0.049l-0.016-0.085l-0.141-0.112l-0.103,0.144
	l0.006,0.096l0.068,0.072l0.085,0.092l0.003,0.107l0.072,0.07l0.084,0.094l0.016,0.095l0.038,0.074l0.038,0.117l-0.019,0.063
	l0.003,0.076l-0.085,0.047l-0.09,0.036l-0.353,0.496l-0.08-0.027l-0.084-0.115l-0.071-0.071l-0.064,0.044l0.009,0.14l-0.007,0.107
	l-0.108,0.057l-0.031,0.055l-0.097,0.261l0.093,0.082l0.094,0.082l0.127,0.08l0.06,0.093l0.035,0.073L141.29,26.2l-0.031,0.087
	l0.093,0.038l0.104,0.039l0.07,0.083l0.018,0.127l0.076-0.057l0.089-0.003l0.068,0.06l-0.007,0.066l0.06,0.082l-0.007,0.107
	l0.007,0.118l-0.053,0.044l-0.007,0.086l-0.089,0.025l-0.018,0.106l-0.007,0.108l0.092,0.06l0.062,0.083l0.047,0.072l0.004,0.085
	l0.053,0.073l0.024,0.083l0.072,0.083l-0.008,0.108l-0.073,0.098l-0.061,0.099l-0.054,0.056l-0.1-0.017l-0.103-0.04l-0.009,0.076
	l-0.053,0.088l0.083,0.028l0.123,0.038l0.006,0.085l0.035,0.084l0.007,0.096l0.005,0.097l0.037,0.094l-0.004,0.128l0.037,0.084
	l-0.028,0.099l0.086,0.135l-0.027,0.109l0.059,0.072l-0.006,0.128l0.008,0.128l-0.006,0.118l-0.005,0.086l-0.075,0.099l-0.082,0.09
	l-0.133,0.07l-0.017,0.086l0.122-0.005l-0.105,0.068v0.064l0.071,0.115l0.079-0.037l0.015,0.074l0.049,0.072l0.068,0.04l0.039-0.088
	l0.065-0.066l0.1,0.018l-0.061,0.087l-0.065,0.079l0.039,0.083l0.081,0.028l0.108-0.047l0.096-0.057
	c0.029-0.015,0.062-0.007,0.081,0.018c0.022,0.032-0.011,0.087-0.052,0.087l-0.017,0.108l-0.101-0.017l-0.029,0.085l0.071,0.073
	l-0.054,0.034l-0.02,0.075L142.16,31.2l-0.098,0.079l-0.051,0.089l-0.008,0.117l-0.075,0.037l-0.054,0.044l-0.076,0.057
	l-0.063,0.077l-0.018,0.098l-0.038,0.086l-0.062,0.078l-0.077,0.047l-0.111,0.046l0.073,0.052l0.089,0.049l-0.008,0.064
	l-0.088,0.015l-0.019,0.076l0.017,0.074l-0.09-0.006l-0.109,0.047l-0.019,0.097l-0.006,0.075l-0.08-0.049l-0.102-0.007l-0.064,0.078
	l-0.119,0.028l-0.06-0.063l-0.068,0.014l-0.042,0.066l-0.065-0.007l-0.048-0.062l-0.066,0.013l-0.007,0.056l-0.019,0.086
	l-0.046-0.019l-0.048-0.02l-0.063,0.046l0.014,0.074l-0.109,0.015l-0.086,0.057l-0.073,0.121l-0.072,0.121l-0.041,0.087
	l-0.013,0.131l0.011,0.052l0.051,0.103l0.05,0.084l0.07,0.063l0.038,0.093l0.057,0.03l-0.007,0.063l-0.01,0.075l-0.074,0.047
	l-0.058-0.04l-0.09,0.013l-0.124-0.027l-0.12,0.006l-0.066,0.035l-0.073,0.079l-0.087,0.089l-0.006,0.086l0.06,0.093l0.104,0.04
	l0.015,0.063l0.058,0.05l0.114,0.07l0.071,0.083l0.06,0.062l0.115,0.059l0.138,0.08l0.132,0.004l0.061,0.072l0.104,0.103
	l0.094,0.071l0.135,0.016l0.059,0.083l0.104,0.06l0.137,0.111l0.206,0.065l0.166-0.007l0.112,0.027l0.116,0.059l0.092,0.071
	l0.094,0.071l0.091,0.06l0.05,0.115l0.051,0.094l0.039,0.084l0.121-0.006l0.125,0.015l0.1,0.027l0.122-0.037l0.047,0.02l0.045,0.062
	l0.082,0.018l0.089,0.018l0.07,0.052l0.079,0.005l0.089-0.003l0.089,0.029l-0.014-0.074l0.122,0.005l0.082,0.03l0.066,0.061
	l0.09-0.046l0.078-0.003l0.1-0.004l0.011-0.215l0.08,0.007l0.01-0.042l0.053-0.036l0.103,0.049l0.082,0.04l0.054-0.015L144.177,36
	l0.076,0.019l0.06,0.083l0.071,0.061l0.061,0.083l0.114,0.05l0.185,0.108l0.21-0.02l0.117,0.111l0.088,0.017l0.104,0.05l0.08-0.004
	l0.077,0.04l0.104,0.006l0.118-0.07l0.069,0.04l0.067,0.007l0.055,0l0.093,0.07l0.059,0.072l0.08,0.018l0.102,0.038l0.086-0.101
	l0.07,0.072l0.049,0.115l0.039,0.063l0.08,0.05l0.078,0.008l0.082,0.061l0.06,0.062l0.077,0.027l0.092-0.388l0.05-0.354h0.003
	L147,36.933l0.018,0.29l-0.087,0.163l0.103,0.114l0.056,0.067l0.05,0.084l-0.041,0.063l0.035,0.067l-0.018,0.076l0.07,0.063
	l0.089-0.024l0.089,0.029l0.126,0.048l0.037,0.063l0.068,0.028l0.074-0.046l0.038,0.072l0.038,0.084l0.057,0.04l0.279,0.02
	l0.058,0.04l0.083,0.05l0.003,0.074l0.07,0.05l-0.021,0.055l0.06,0.041l0.079,0.05l-0.053,0.077l0.083,0.017l-0.1,0.069
	l-0.018,0.086l0.059,0.062l0.066,0.009l0.062,0.072l0.065,0.019l0.101,0.005l0.064-0.044l0.068,0.029l0.04-0.066l0.005,0.074
	l0.088-0.004l-0.005,0.075l0.068,0.019l0.004,0.073l-0.009,0.086l0.073,0.072l-0.057,0.033l0.06,0.062l-0.064,0.046l-0.042,0.065
	l-0.065,0.024l0.05,0.094l0.036,0.052l0.102,0.028l0.101,0.006l0.081,0.018l-0.012,0.054l0.05,0.072l0.134-0.028l0.146-0.006
	l0.039-0.077l0.051,0.095l0.054-0.056l0.054-0.077l0.065,0.041l0.082,0.039l0.11-0.027l0.111,0.018l0.081,0.039l0.099-0.028
	l0.088-0.023l0.08,0.007l0.07-0.101l0.087-0.067l0.113,0.027l0.101-0.005l0.007-0.064l0.066-0.025l0.018-0.065l0.029-0.097
	l0.088-0.025l0.078-0.036l0.017,0.097l0.142-0.029l0.058,0.041l0.113,0.017l0.041,0.159l0.038-0.141l0.051,0.094l0.083,0.071
	l0.075-0.014l0.099-0.036l0.058,0.029l0.099-0.025l0.027-0.087l0.021-0.064l0.089,0.008l0.124,0.025l-0.017-0.128l0.092,0.062
	l0.086-0.036l0.08,0.049l0.016,0.064l0.077-0.014l0.073,0.06l0.1,0.018l0.037,0.074l0.017,0.084l0.09,0.006l0.03-0.076l0.079,0.051
	l0.055-0.034l0.061,0.103l0.074-0.047l0.082,0.03l-0.076,0.056l0.067,0.03l0.122-0.058l0.026,0.074l0.015,0.073l0.078-0.013
	L153.556,40l0.116-0.09l0.039,0.146l-1.018,1.5l0.092,0.029l0.134-0.017l0.091,0.006l0.124,0.037l0.073-0.079l0.075-0.066
	l0.102,0.028l0.035,0.061l0.073,0.072l0.057,0.041l0.102,0.027l0.048,0.051l0.004,0.095l0.014,0.064l0.081,0.041l0.027,0.094
	l0.068,0.051l0.732-3.777l-0.015-0.074l0.038-0.119l0.03-0.098l-0.026-0.085l0.006-0.116l0.048-0.131l-0.059-0.072l0.007-0.076
	l-0.068-0.05l-0.102-0.038l0.029-0.065l-0.081-0.062l-0.062-0.082l-0.037-0.083l0.042-0.045l0.053-0.078l-0.057-0.029l-0.004-0.086
	l0.007-0.097l-0.092-0.039l-0.104-0.048l-0.09-0.061l-0.093-0.049l-0.111-0.015l-0.106-0.082l-0.059-0.105l-0.028-0.094
	l-0.003-0.985l0.118-0.025l0.056-0.046l0.11,0.016l0.102-0.004l0.075-0.055l0.074-0.068l0.08,0.039l0.12-0.08l0.04-0.055l0.08,0.018
	l0.104,0.06l0.134-0.005l0.043,0.052l0.071,0.027l0.062-0.067l0.114-0.005l-0.051-0.083l-0.06-0.051l0.065-0.055l-0.025-0.085
	l0.063-0.036l-0.093-0.049l0.019-0.076l-0.036-0.063l-0.08-0.071l-0.101-0.017l-0.104-0.049l-0.052,0.088l-0.094-0.071l-0.054,0.055
	l-0.089-0.006l-0.024-0.063l-0.09-0.006l-0.076,0.045l-0.048-0.061l-0.054,0.012l-0.002,0.057l-0.029,0.014v-0.931l0.037-0.003
	l0.017-0.055l0.1-0.005l0.093-0.003l0.071-0.058l0.086,0.017l0.071,0.041l0.114,0.005l2.031-0.08l-0.093-0.07l-0.016-0.063
	l-0.057-0.031l0.029-0.087l0.074-0.099l0.089-0.015l0.078,0.05l0.042,0.105l0.047,0.094l0.092,0.049l0.113,0.016l-0.051-0.05
	l-0.029-0.117l0.098-0.069l0.11-0.025l0.163-0.223l0.129-0.096l0.117-0.11l0.133-0.033l0.127,0.06l0.061,0.127l0.063,0.18
	l0.071,0.115l0.142,0.083l0.051,0.168l0.021,0.129l0.102,0.126l0.049,0.167l-0.034,0.131l0.019,0.104l0.021,0.091l0.134,0.006
	l0.121-0.031l0.124,0.006l-0.063-0.14L158.811,33.963z M146.039,28.439l-0.049,0.025l-0.001-0.001L146.039,28.439z"/>
<path fill="#1674F4" d="M19.67,102.028h10.997V80.035H19.67V102.028z M26.543,82.785h2.75v2.748h-2.75V82.785z M26.543,88.283h2.75
	v2.749h-2.75V88.283z M26.543,93.781h2.75v2.75h-2.75V93.781z M21.044,82.785h2.75v2.748h-2.75V82.785z M21.044,88.283h2.75v2.749
	h-2.75V88.283z M21.044,93.781h2.75v2.75h-2.75V93.781z M32.042,89.658l4.582-2.75l5.04,2.75v1.374h-9.622V89.658z M32.042,102.028
	h2.749V96.53h4.125v5.498h2.749v-10.31h-9.623V102.028z"/>
<path fill="#1674F4" d="M218.12,83.539V80.47h-15.349v3.069h-4.604v1.533v1.537c0,2.543,2.061,4.604,4.604,4.604
	c0.48,0,0.945-0.073,1.381-0.21c1.108,1.583,2.799,2.729,4.758,3.128v4.757h-1.533c-1.696,0-3.07,1.374-3.07,3.07h12.278
	c0-1.696-1.375-3.07-3.068-3.07h-1.537v-4.757c1.962-0.398,3.65-1.544,4.758-3.128c0.438,0.137,0.9,0.21,1.383,0.21
	c2.544,0,4.605-2.061,4.605-4.604v-1.536v-1.534H218.12z M202.771,89.391c-1.534,0-2.782-1.248-2.782-2.781v-1.537h2.782v1.537
	c0,0.963,0.178,1.885,0.504,2.735C203.111,89.373,202.942,89.391,202.771,89.391z M220.902,86.609c0,1.533-1.248,2.781-2.782,2.781
	c-0.172,0-0.34-0.017-0.503-0.045c0.325-0.852,0.503-1.773,0.503-2.736v-1.535h2.782V86.609z"/>
<path fill="#1674F4" d="M90.569,79.469c-6.027,0-10.931,4.816-11.069,10.811c0.129-5.229,4.106-9.427,8.993-9.427
	c4.969,0,8.995,4.335,8.995,9.687c0,1.148,0.929,2.076,2.076,2.076c1.147,0,2.076-0.93,2.076-2.076
	C101.641,84.425,96.685,79.469,90.569,79.469z M90.569,101.611c6.027,0,10.93-4.816,11.068-10.812
	c-0.128,5.229-4.105,9.429-8.991,9.429c-4.969,0-8.997-4.338-8.997-9.688c0-1.148-0.93-2.077-2.077-2.077
	c-1.146,0-2.076,0.93-2.076,2.077C79.497,96.654,84.454,101.611,90.569,101.611z"/>
<path fill="#1674F4" d="M158.811,93.963l-0.058-0.063l-0.084-0.036l0.021-0.145l-0.073-0.074l-0.044-0.089l0.021-0.08l-0.042-0.036
	l-0.005-0.064l-0.098-0.049l-0.003-0.078l-0.005-0.078l-0.053-0.035l-0.034-0.065l-0.1-0.1l0.036-0.079l0.022-0.094l-0.042-0.063
	l-0.006-0.09l-0.104,0.07l-0.019-0.104l-0.016-0.064l-0.048-0.077l0.023-0.079l-0.058-0.088l-0.083-0.035l-0.005-0.064l-0.096-0.049
	l-0.086-0.061l-0.045-0.092l-0.069,0.004l-0.07-0.048l-0.016-0.065l-0.081,0.057l-0.057-0.05l-0.006-0.117l-0.044-0.063
	l-0.067,0.003l-0.028-0.051l-0.12,0.056l-0.072-0.061l-0.079,0.03l-0.086-0.049l0.564-0.625l0.095-0.017l0.092-0.056l0.023-0.081
	l0.066-0.028l0.038-0.066l-0.019-0.078l-0.097-0.035l-0.017-0.051l-0.068-0.036l-0.006-0.117l-0.056-0.022l-0.019-0.065
	l-0.018-0.103l0.048-0.043l-0.059-0.088l-0.104,0.057l-0.071-0.049l-0.059-0.074l-0.003-0.078l-0.041-0.087l-0.019-0.02l0.02-0.067
	l-0.058-0.029l0.075-0.113l-0.026-0.074l-0.06-0.063l0.027-0.121l-0.027-0.098l-0.084-0.105l-0.063-0.073l-0.039-0.107l0.018-0.087
	l0.042-0.09l-0.018-0.129L157,88.641l0.042-0.068l-0.029-0.096l0.055-0.057l-0.038-0.064l0.031-0.077l-0.048-0.064l0.017-0.054
	l-0.08-0.041l-0.002-0.064l0.087-0.06l0.053-0.079l0.078-0.067l0.063-0.069l0.045-0.066l-0.031-0.086l-0.035-0.074l0.041-0.078
	l-0.027-0.086l0.061-0.135l0.053-0.067l0.065-0.102l0.088-0.07l-0.017-0.087l-0.081-0.029l-0.041-0.086l0.046-0.045l-0.071-0.063
	l-0.095-0.051l-0.1,0.006l-0.079,0.016l-0.12,0.037l-0.087,0.047l-0.102-0.018l-0.103-0.048l-0.088,0.003l-0.099,0.048l-0.042,0.056
	l-0.122,0.016l-0.104-0.04l-0.099,0.049l-0.074,0.046l-0.183-0.035l-0.238,0.063l-0.081-0.026l-0.148-0.048l-0.145,0.006
	l-0.143-0.005l-0.137-0.015l-0.099-0.007l-0.042,0.076l-0.072,0.08l-0.1,0.046l-0.079-0.038l-0.051-0.073l-0.051,0.056l-0.092-0.006
	l-1.113-1.245l-0.164,0.008l-0.076,0.046l-0.089,0.004l-0.095-0.071l-0.12-0.016l-0.093-0.028l-0.071-0.071l-0.098,0.024
	l-0.093-0.06l-0.028,0.097l-0.069-0.061l-0.121,0.016l-0.078,0.037l-0.066,0.046l-0.088,0.025l-0.088,0.048l-0.1-0.027l-0.081-0.051
	l-0.144,0.027l-0.081-0.027l-0.087,0.035l-0.1-0.016l-0.128-0.049l-0.142,0.05l-0.079-0.052l-0.107,0.049l-0.095-0.071l-0.087,0.036
	l-0.065,0.057l-0.146-0.016l-0.091,0.016l-0.088-0.008l-0.149-0.27l-0.081-0.093l0.039-0.077l-0.046-0.082l-0.091-0.008
	l-0.156,0.008l-0.111-0.018l0.016-0.086l-0.136-0.068l0.041-0.066l-0.051-0.105l0.029-0.086l-0.025-0.105l0.037-0.109l-0.025-0.084
	l0.003-0.14l0.076-0.046l0.063-0.089l-0.049-0.062l0.063-0.089l0.02-0.087l-0.029-0.104l-0.038-0.096l-0.444-0.385l-0.122-0.455
	l-0.037-0.245l-0.09-0.038l-0.103-0.037l-0.055,0.055l-0.088,0.026l-0.048-0.085l0.063-0.045l-0.05-0.073l-0.071-0.114l-0.097,0.09
	l-0.073,0.057l-0.122,0.049l-0.132,0.049l-0.146-0.015l0.067-0.024l0.061-0.078l-0.003-0.076l0.05-0.117l0.061-0.153l0.084-0.112
	l0.107-0.056l0.095-0.134l0.038-0.117l0.054-0.078l0.062-0.089l-0.104-0.069l0.028-0.108l0.059-0.164l0.016-0.117l-0.019-0.116
	l0.053-0.088l0.074-0.079l0.03-0.065l0.063-0.077l0.008-0.063l-0.004-0.065l0.064-0.065l0.042-0.068l0.04-0.075l0.051-0.132
	l0.038-0.098l0.041-0.086l0.064-0.079l0.005-0.074l0.106-0.101l0.117-0.082l0.146-0.027l0.075-0.078l0.071-0.109l0.135-0.23
	l0.052-0.09l0.062-0.098l0.029-0.076l0.072-0.078l0.121-0.037l0.211-0.041l0.118-0.059l0.188-0.051l0.122-0.027l0.129-0.092
	l0.062-0.109l0.142-0.069l0.106-0.091l-0.007-0.097l-0.072-0.124l-0.061-0.105l-0.104-0.092l-0.137-0.079l-0.183-0.056l-0.149-0.068
	l-0.1-0.027l-0.134,0.006l-0.063,0.078l0.07,0.081l-0.039,0.088l-0.147-0.025l-0.072,0.068l0.071,0.104l-0.041,0.086l-0.132,0.006
	l-0.062-0.092l-0.102-0.018l-0.074,0.046l-0.015,0.192l-0.081,0.165l-0.051,0.099l-0.13,0.058l-0.076,0.046l-0.053,0.078
	l-0.13,0.059l-0.125-0.025l-0.1,0.015l-0.063,0.046l-0.102,0.016l-0.118,0.069l-0.107,0.079l-0.072,0.1l-0.12,0.038l-0.088,0.067
	l-0.005,0.086l-0.122,0.017l-0.075,0.089l-0.099,0.32l-0.109,0.277h-0.189h-0.134h-0.085l-0.146-0.213l-0.102-0.123l-0.124-0.072
	l-0.146-0.068l-0.103-0.195l-0.078-0.193h-0.089l-0.03,0.252l-0.054,0.107l-0.041,0.119l0.006,0.147l0.018,0.158l-0.108,0.054
	l-0.19,0.033l-0.155-0.025l-0.113-0.016l-0.146-0.024l-0.052,0.067l-0.075,0.045l-0.062-0.093l-0.113-0.006l-0.142,0.028
	l-0.086,0.068l-0.064,0.078l-0.075,0.024l-0.021,0.054l-0.098,0.037l-0.101,0.004l-0.051,0.077l-0.006,0.086l-0.122,0.037
	l-0.1,0.067l-0.07,0.078l-0.075,0.101l-0.005,0.14l-0.006,0.074l0.035,0.053l-0.02,0.064l0.019,0.105l0.026,0.095l0.072,0.083
	l0.081,0.062l-0.109,0.058l-0.076,0.024l0.006-0.096l-0.057-0.041l-0.051,0.079l0.003,0.115l-0.036,0.142l-0.016,0.129l-0.063,0.1
	l0.071,0.081l0.061,0.073l0.037,0.116l0.006,0.096l-0.097,0.068l-0.131,0.08l-0.089-0.027l-0.113-0.007l-0.131,0.028l-0.077,0.024
	l-0.088,0.036l-0.098,0.059l-0.007,0.085l-0.064,0.056l-0.085,0.068l0.006,0.107l-0.086,0.078l-0.055,0.045l-0.029,0.088
	l-0.098,0.047l-0.017,0.087l-0.064,0.046l-0.064,0.046l-0.086,0.058l-0.087,0.057l-0.098,0.068l-0.072,0.058l-0.021,0.075
	l-0.079-0.008l-0.145,0.018l-0.097,0.025l-0.064,0.078l0.105,0.091l0.103,0.049l0.094,0.125l-0.015,0.118l-0.018,0.107l0.05,0.105
	l0.006,0.096l0.018,0.139l-0.037,0.119l-0.098,0.047l-0.137-0.025l-0.023-0.053l0.019-0.066l-0.049-0.06l-0.016-0.075l-0.035-0.084
	l0.028-0.076l-0.05-0.093l-0.112-0.006l-0.06-0.062l-0.087-0.167l-0.123-0.037l-0.093-0.05l-0.016-0.084l-0.141-0.113l-0.103,0.145
	l0.006,0.096l0.068,0.072l0.085,0.093l0.003,0.107l0.072,0.07l0.084,0.094l0.016,0.095l0.038,0.074l0.038,0.117l-0.019,0.063
	l0.003,0.076l-0.085,0.047l-0.09,0.036l-0.353,0.495l-0.08-0.027l-0.084-0.114l-0.071-0.071l-0.064,0.045l0.009,0.139l-0.007,0.107
	l-0.108,0.057l-0.031,0.056l-0.097,0.261l0.093,0.082l0.094,0.082l0.127,0.08l0.06,0.093l0.035,0.073l-0.062,0.057l-0.031,0.088
	l0.093,0.037l0.104,0.039l0.07,0.083l0.018,0.127l0.076-0.057l0.089-0.003l0.068,0.06l-0.007,0.066l0.06,0.082l-0.007,0.107
	l0.007,0.118l-0.053,0.044l-0.007,0.086l-0.089,0.025l-0.018,0.106l-0.007,0.108l0.092,0.06l0.062,0.084l0.047,0.071l0.004,0.085
	l0.053,0.074l0.024,0.083l0.072,0.083l-0.008,0.107l-0.073,0.098l-0.061,0.1l-0.054,0.057l-0.1-0.018l-0.103-0.039l-0.009,0.076
	l-0.053,0.088l0.083,0.028l0.123,0.038l0.006,0.084l0.035,0.084l0.007,0.097l0.005,0.097l0.037,0.094l-0.004,0.128l0.037,0.085
	l-0.028,0.098l0.086,0.135l-0.027,0.109l0.059,0.072l-0.006,0.129l0.008,0.128l-0.006,0.118l-0.005,0.086l-0.075,0.1l-0.082,0.09
	l-0.133,0.07l-0.017,0.086l0.122-0.005l-0.105,0.068v0.063l0.071,0.115l0.079-0.036l0.015,0.074l0.049,0.072l0.068,0.04l0.039-0.088
	l0.065-0.066l0.1,0.018l-0.061,0.088l-0.065,0.078l0.039,0.084l0.081,0.027l0.108-0.047l0.096-0.057
	c0.029-0.016,0.062-0.008,0.081,0.018c0.022,0.032-0.011,0.087-0.052,0.087l-0.017,0.108l-0.101-0.018l-0.029,0.086l0.071,0.072
	l-0.054,0.035l-0.02,0.074l-0.075,0.025l-0.098,0.08l-0.051,0.088l-0.008,0.117l-0.075,0.037l-0.054,0.044l-0.076,0.057
	l-0.063,0.077l-0.018,0.098l-0.038,0.087l-0.062,0.077l-0.077,0.047l-0.111,0.047l0.073,0.052l0.089,0.05l-0.008,0.064l-0.088,0.015
	l-0.019,0.075l0.017,0.074l-0.09-0.006l-0.109,0.048l-0.019,0.097l-0.006,0.074l-0.08-0.049l-0.102-0.008l-0.064,0.078l-0.119,0.028
	l-0.06-0.063l-0.068,0.015l-0.042,0.066l-0.065-0.008l-0.048-0.063l-0.066,0.014l-0.007,0.055l-0.019,0.086l-0.046-0.019
	l-0.048-0.021l-0.063,0.047l0.014,0.074l-0.109,0.014l-0.086,0.058l-0.073,0.121l-0.072,0.121l-0.041,0.087l-0.013,0.131
	l0.011,0.053l0.051,0.104l0.05,0.084l0.07,0.063l0.038,0.093l0.057,0.03l-0.007,0.063l-0.01,0.076l-0.074,0.047l-0.058-0.04
	l-0.09,0.013l-0.124-0.026l-0.12,0.007l-0.066,0.034l-0.073,0.079l-0.087,0.09l-0.006,0.086l0.06,0.092l0.104,0.04l0.015,0.063
	l0.058,0.051l0.114,0.07l0.071,0.082l0.06,0.063l0.115,0.059l0.138,0.079l0.132,0.005l0.061,0.071l0.104,0.103l0.094,0.07
	l0.135,0.017l0.059,0.083l0.104,0.06l0.137,0.111l0.206,0.065l0.166-0.008l0.112,0.027l0.116,0.059l0.092,0.07l0.094,0.072
	l0.091,0.06l0.05,0.114l0.051,0.095l0.039,0.085l0.121-0.007l0.125,0.015l0.1,0.027l0.122-0.037l0.047,0.02l0.045,0.062l0.082,0.019
	l0.089,0.018l0.07,0.052l0.079,0.005l0.089-0.003l0.089,0.028l-0.014-0.074l0.122,0.006l0.082,0.029l0.066,0.061l0.09-0.047
	l0.078-0.003l0.1-0.004l0.011-0.215l0.08,0.007l0.01-0.042l0.053-0.036l0.103,0.05l0.082,0.04l0.054-0.016L144.177,96l0.076,0.019
	l0.06,0.083l0.071,0.061l0.061,0.083l0.114,0.05l0.185,0.108l0.21-0.02l0.117,0.111l0.088,0.017l0.104,0.051l0.08-0.004l0.077,0.039
	l0.104,0.006l0.118-0.07l0.069,0.04l0.067,0.007h0.055l0.093,0.069l0.059,0.072l0.08,0.019l0.102,0.037l0.086-0.1l0.07,0.072
	l0.049,0.114l0.039,0.063l0.08,0.05l0.078,0.008l0.082,0.061l0.06,0.062l0.077,0.027l0.092-0.388l0.05-0.354h0.003l0.068,0.54
	l0.018,0.29l-0.087,0.162l0.103,0.115l0.056,0.066l0.05,0.085l-0.041,0.063l0.035,0.067l-0.018,0.076l0.07,0.063l0.089-0.025
	l0.089,0.029l0.126,0.049l0.037,0.063l0.068,0.028l0.074-0.046l0.038,0.072l0.038,0.084l0.057,0.041l0.279,0.02l0.058,0.039
	l0.083,0.051l0.003,0.073l0.07,0.05l-0.021,0.055l0.06,0.041l0.079,0.051l-0.053,0.076l0.083,0.018l-0.1,0.068l-0.018,0.086
	l0.059,0.063l0.066,0.009l0.062,0.071l0.065,0.02l0.101,0.005l0.064-0.044l0.068,0.028l0.04-0.066l0.005,0.074l0.088-0.004
	l-0.005,0.075l0.068,0.02l0.004,0.072l-0.009,0.087l0.073,0.072l-0.057,0.033l0.06,0.062l-0.064,0.046l-0.042,0.065l-0.065,0.024
	l0.05,0.094l0.036,0.052l0.102,0.028l0.101,0.007l0.081,0.018l-0.012,0.054l0.05,0.071l0.134-0.027l0.146-0.006l0.039-0.076
	l0.051,0.094l0.054-0.056l0.054-0.077l0.065,0.041l0.082,0.039l0.11-0.027l0.111,0.018l0.081,0.039l0.099-0.028l0.088-0.023
	l0.08,0.007l0.07-0.1l0.087-0.067l0.113,0.026l0.101-0.005l0.007-0.064l0.066-0.024l0.018-0.065l0.029-0.097l0.088-0.025
	l0.078-0.036l0.017,0.097l0.142-0.029l0.058,0.041l0.113,0.016l0.041,0.16l0.038-0.142l0.051,0.095l0.083,0.07l0.075-0.014
	l0.099-0.036l0.058,0.029l0.099-0.024l0.027-0.088l0.021-0.064l0.089,0.008l0.124,0.025l-0.017-0.128l0.092,0.062l0.086-0.036
	l0.08,0.049l0.016,0.063l0.077-0.014l0.073,0.061l0.1,0.018l0.037,0.073l0.017,0.084l0.09,0.007l0.03-0.076l0.079,0.051l0.055-0.034
	l0.061,0.103l0.074-0.047l0.082,0.03l-0.076,0.056l0.067,0.03l0.122-0.058l0.026,0.073l0.015,0.073l0.078-0.013L153.556,100
	l0.116-0.09l0.039,0.146l-1.018,1.5l0.092,0.029l0.134-0.018l0.091,0.007l0.124,0.037l0.073-0.079l0.075-0.066l0.102,0.029
	l0.035,0.061l0.073,0.072l0.057,0.041l0.102,0.027l0.048,0.051l0.004,0.095l0.014,0.063l0.081,0.041l0.027,0.095l0.068,0.051
	l0.732-3.777l-0.015-0.074l0.038-0.118l0.03-0.098l-0.026-0.086l0.006-0.115l0.048-0.132l-0.059-0.071l0.007-0.076l-0.068-0.051
	l-0.102-0.037l0.029-0.064l-0.081-0.063l-0.062-0.082l-0.037-0.083l0.042-0.045l0.053-0.077l-0.057-0.029l-0.004-0.086l0.007-0.097
	l-0.092-0.038l-0.104-0.049l-0.09-0.061l-0.093-0.049l-0.111-0.016l-0.106-0.081l-0.059-0.105l-0.028-0.095l-0.003-0.984
	l0.118-0.025l0.056-0.047l0.11,0.017l0.102-0.005l0.075-0.055l0.074-0.068l0.08,0.039l0.12-0.08l0.04-0.055l0.08,0.018l0.104,0.061
	l0.134-0.006l0.043,0.053l0.071,0.027l0.062-0.067l0.114-0.005l-0.051-0.084l-0.06-0.051l0.065-0.055l-0.025-0.086l0.063-0.035
	l-0.093-0.049l0.019-0.076l-0.036-0.063l-0.08-0.07l-0.101-0.018l-0.104-0.049l-0.052,0.088l-0.094-0.071l-0.054,0.056l-0.089-0.006
	l-0.024-0.063l-0.09-0.007l-0.076,0.046l-0.048-0.061l-0.054,0.012l-0.002,0.057l-0.029,0.014v-0.931l0.037-0.004l0.017-0.055
	l0.1-0.006l0.093-0.003l0.071-0.058l0.086,0.017l0.071,0.041l0.114,0.005l2.031-0.08l-0.093-0.07l-0.016-0.063l-0.057-0.031
	l0.029-0.087l0.074-0.099l0.089-0.016l0.078,0.05l0.042,0.104l0.047,0.095l0.092,0.049l0.113,0.017l-0.051-0.051l-0.029-0.117
	l0.098-0.068l0.11-0.025l0.163-0.223l0.129-0.096l0.117-0.11l0.133-0.033l0.127,0.06l0.061,0.127l0.063,0.18l0.071,0.115
	l0.142,0.084l0.051,0.168l0.021,0.129l0.102,0.127l0.049,0.166l-0.034,0.132l0.019,0.104l0.021,0.091l0.134,0.006l0.121-0.03
	l0.124,0.006l-0.063-0.141L158.811,93.963z M146.039,88.439l-0.049,0.025l-0.001-0.002L146.039,88.439z"/>
</svg>
