<?xml version="1.0" encoding="utf-8"?>
<!-- Generator: Adobe Illustrator 16.0.0, SVG Export Plug-In . SVG Version: 6.00 Build 0)  -->
<!DOCTYPE svg PUBLIC "-//W3C//DTD SVG 1.1//EN" "http://www.w3.org/Graphics/SVG/1.1/DTD/svg11.dtd">
<svg version="1.1" id="Layer_1" xmlns="http://www.w3.org/2000/svg" xmlns:xlink="http://www.w3.org/1999/xlink" x="0px" y="0px"
	 width="120px" height="60px" viewBox="-12 -6 120 60" enable-background="new -12 -6 120 60" xml:space="preserve">
<g transform="translate(0.5, 0.5)">
	<g>
		<path fill="#1674F4" stroke="#1674F4" stroke-width="2" stroke-miterlimit="10" d="M11.315,42.5c-0.245,0-0.408-0.081-0.571-0.244
			c-0.326-0.326-0.326-0.815,0-1.142l17.357-17.355L10.744,6.402c-0.326-0.326-0.326-0.815,0-1.141c0.326-0.326,0.815-0.326,1.141,0
			l17.927,17.926c0.326,0.326,0.326,0.815,0,1.142L11.885,42.256C11.722,42.419,11.559,42.5,11.315,42.5z"/>
	</g>
</g>
<g transform="translate(0.5, 0.5)">
	<g>
		<path fill="#1674F4" stroke="#1674F4" stroke-width="2" stroke-miterlimit="10" d="M83.354,42.5c-0.244,0-0.407-0.081-0.57-0.244
			L64.857,24.329c-0.326-0.326-0.326-0.815,0-1.142L82.784,5.261c0.326-0.326,0.814-0.326,1.141,0s0.326,0.815,0,1.141
			L66.568,23.759l17.356,17.355c0.326,0.326,0.326,0.815,0,1.142C83.762,42.419,83.599,42.5,83.354,42.5z"/>
	</g>
</g>
</svg>
