<?xml version="1.0" encoding="utf-8"?>
<!-- Generator: Adobe Illustrator 25.2.0, SVG Export Plug-In . SVG Version: 6.00 Build 0)  -->
<svg version="1.1" id="Capa_1" xmlns="http://www.w3.org/2000/svg" xmlns:xlink="http://www.w3.org/1999/xlink" x="0px" y="0px"
	 viewBox="0 0 56.1 43" style="enable-background:new 0 0 56.1 43;" xml:space="preserve">
<style type="text/css">
	.st0{fill:#FFFFFF;}
	.st1{fill:#CFD8DC;}
	.st2{fill:#40C351;}
	.st3{fill-rule:evenodd;clip-rule:evenodd;fill:#FFFFFF;}
</style>
<path class="st0" d="M16.8,36.8l2.3-8.4c-1.4-2.5-2.2-5.3-2.2-8.1C17,11.3,24.3,4,33.2,4c4.4,0,8.4,1.7,11.5,4.8
	c3.1,3.1,4.8,7.2,4.8,11.5c0,9-7.3,16.3-16.3,16.3c0,0,0,0,0,0h0c-2.7,0-5.4-0.7-7.8-2L16.8,36.8z"/>
<path class="st0" d="M16.8,37.2c-0.1,0-0.2,0-0.3-0.1c-0.1-0.1-0.1-0.3-0.1-0.4l2.3-8.3c-1.4-2.5-2.1-5.3-2.1-8.2
	C16.5,11,24,3.6,33.2,3.6c4.5,0,8.7,1.7,11.8,4.9c3.2,3.2,4.9,7.4,4.9,11.8c0,9.2-7.5,16.7-16.7,16.7c-2.7,0-5.4-0.7-7.8-2l-8.5,2.2
	C16.9,37.2,16.9,37.2,16.8,37.2z"/>
<path class="st1" d="M33.2,4c4.4,0,8.4,1.7,11.5,4.8c3.1,3.1,4.8,7.2,4.8,11.5c0,9-7.3,16.3-16.3,16.3h0c-2.7,0-5.4-0.7-7.8-2
	l-8.6,2.3l2.3-8.4c-1.4-2.5-2.2-5.3-2.2-8.1C17,11.3,24.3,4,33.2,4 M33.2,36.5L33.2,36.5L33.2,36.5 M33.2,36.5L33.2,36.5L33.2,36.5
	 M33.2,3.1L33.2,3.1c-9.4,0-17.1,7.7-17.1,17.1c0,2.9,0.7,5.7,2.1,8.2L16,36.6c-0.1,0.3,0,0.6,0.2,0.8c0.2,0.2,0.4,0.3,0.6,0.3
	c0.1,0,0.1,0,0.2,0l8.3-2.2c2.4,1.3,5.1,1.9,7.9,1.9c9.4,0,17.1-7.7,17.1-17.1c0-4.6-1.8-8.9-5-12.1C42.1,4.9,37.8,3.1,33.2,3.1
	L33.2,3.1z"/>
<path class="st2" d="M42.7,10.8c-2.6-2.6-5.9-4-9.6-4c-7.5,0-13.5,6.1-13.5,13.5c0,2.6,0.7,5,2.1,7.2l0.3,0.5l-1.4,5l5.1-1.3
	l0.5,0.3c2.1,1.2,4.5,1.9,6.9,1.9h0c7.5,0,13.5-6.1,13.5-13.5C46.7,16.8,45.3,13.4,42.7,10.8z"/>
<path class="st3" d="M29.1,13.4c-0.3-0.7-0.6-0.7-0.9-0.7c-0.2,0-0.5,0-0.8,0c-0.3,0-0.7,0.1-1.1,0.5c-0.4,0.4-1.4,1.4-1.4,3.4
	s1.5,3.9,1.7,4.2s2.8,4.5,6.9,6.1c3.4,1.4,4.1,1.1,4.9,1c0.7-0.1,2.4-1,2.7-1.9c0.3-0.9,0.3-1.8,0.2-1.9c-0.1-0.2-0.4-0.3-0.8-0.5
	c-0.4-0.2-2.4-1.2-2.8-1.3c-0.4-0.1-0.6-0.2-0.9,0.2c-0.3,0.4-1,1.3-1.3,1.6c-0.2,0.3-0.5,0.3-0.9,0.1c-0.4-0.2-1.7-0.6-3.3-2
	c-1.2-1.1-2-2.4-2.3-2.8c-0.2-0.4,0-0.6,0.2-0.8c0.2-0.2,0.4-0.5,0.6-0.7c0.2-0.2,0.3-0.4,0.4-0.7c0.1-0.3,0.1-0.5,0-0.7
	C30.3,16.3,29.5,14.3,29.1,13.4z"/>
</svg>
