<?xml version="1.0" encoding="utf-8"?>
<!-- Generator: Adobe Illustrator 25.2.0, SVG Export Plug-In . SVG Version: 6.00 Build 0)  -->
<svg version="1.1" id="Capa_1" xmlns="http://www.w3.org/2000/svg" xmlns:xlink="http://www.w3.org/1999/xlink" x="0px" y="0px"
	 viewBox="0 0 52 43.8" style="enable-background:new 0 0 52 43.8;" xml:space="preserve">
<style type="text/css">
	.st0{fill:#FFFFFF;}
	.st1{fill:#D3D3D3;}
	.st2{fill:url(#SVGID_1_);}
	.st3{fill-rule:evenodd;clip-rule:evenodd;fill:#FFFFFF;}
</style>
<path class="st0" d="M8,35.8l2-7.1c-1.2-2.1-1.9-4.5-1.9-6.9C8.2,14.2,14.4,8,21.9,8c3.7,0,7.1,1.4,9.8,4.1s4.1,6.1,4.1,9.8
	c0,7.6-6.2,13.8-13.8,13.8l0,0l0,0c-2.3,0-4.6-0.6-6.6-1.7L8,35.8z"/>
<path class="st0" d="M8,36.2c-0.1,0-0.2,0-0.3-0.1c-0.1-0.1-0.1-0.3-0.1-0.3l2-7c-1.2-2.1-1.8-4.5-1.8-7C7.8,13.9,14.1,7.6,21.9,7.6
	c3.8,0,7.4,1.4,10,4.2c2.7,2.7,4.2,6.3,4.2,10c0,7.8-6.4,14.2-14.2,14.2c-2.3,0-4.6-0.6-6.6-1.7L8,36.2C8.1,36.2,8.1,36.2,8,36.2z"
	/>
<path class="st1" d="M21.9,8c3.7,0,7.1,1.4,9.8,4.1s4.1,6.1,4.1,9.8c0,7.6-6.2,13.8-13.8,13.8l0,0c-2.3,0-4.6-0.6-6.6-1.7l-7.3,2
	l2-7.1c-1.2-2.1-1.9-4.5-1.9-6.9C8.2,14.2,14.4,8,21.9,8 M21.9,35.6L21.9,35.6L21.9,35.6 M21.9,35.6L21.9,35.6L21.9,35.6 M21.9,7.2
	L21.9,7.2c-8,0-14.5,6.5-14.5,14.5c0,2.5,0.6,4.8,1.8,7l-1.9,7c-0.1,0.3,0,0.5,0.2,0.7c0.2,0.2,0.3,0.3,0.5,0.3c0.1,0,0.1,0,0.2,0
	l7-1.9c2,1.1,4.3,1.6,6.7,1.6c8,0,14.5-6.5,14.5-14.5c0-3.9-1.5-7.6-4.2-10.3C29.5,8.7,25.8,7.2,21.9,7.2L21.9,7.2z"/>
<linearGradient id="SVGID_1_" gradientUnits="userSpaceOnUse" x1="11.1725" y1="13.4275" x2="29.9714" y2="32.2264" gradientTransform="matrix(1 0 0 -1 0 46)">
	<stop  offset="0.4774" style="stop-color:#54B153"/>
	<stop  offset="1" style="stop-color:#399D37"/>
</linearGradient>
<path class="st2" d="M30,13.8c-2.2-2.2-5-3.4-8.1-3.4c-6.4,0-11.5,5.2-11.5,11.5c0,2.2,0.6,4.2,1.8,6.1l0.3,0.4l-1.2,4.2l4.3-1.1
	l0.4,0.3c1.8,1,3.8,1.6,5.9,1.6l0,0c6.4,0,11.5-5.2,11.5-11.5C33.4,18.9,32.2,16,30,13.8z"/>
<path class="st3" d="M18.5,16c-0.3-0.6-0.5-0.6-0.8-0.6c-0.2,0-0.4,0-0.7,0s-0.6,0.1-0.9,0.4c-0.3,0.3-1.2,1.2-1.2,2.9
	c0,1.7,1.3,3.3,1.4,3.6s2.4,3.8,5.9,5.2c2.9,1.2,3.5,0.9,4.2,0.8c0.6-0.1,2-0.8,2.3-1.6s0.3-1.5,0.2-1.6c-0.1-0.2-0.3-0.3-0.7-0.4
	c-0.3-0.2-2-1-2.4-1.1c-0.3-0.1-0.5-0.2-0.8,0.2c-0.3,0.3-0.8,1.1-1.1,1.4c-0.2,0.3-0.4,0.3-0.8,0.1c-0.3-0.2-1.4-0.5-2.8-1.7
	c-1-0.9-1.7-2-2-2.4c-0.2-0.3,0-0.5,0.2-0.7c0.2-0.2,0.3-0.4,0.5-0.6s0.3-0.3,0.3-0.6c0.1-0.3,0.1-0.4,0-0.6
	C19.5,18.5,18.8,16.8,18.5,16z"/>
</svg>
