<svg xmlns="http://www.w3.org/2000/svg" xmlns:xlink="http://www.w3.org/1999/xlink" width="50" zoomAndPan="magnify" viewBox="0 0 37.5 37.499999" height="50" preserveAspectRatio="xMidYMid meet" version="1.0"><path stroke-linecap="butt" transform="matrix(0.106411, 0, 0, 0.101386, 123.94312, -91.284815)" fill-opacity="1" fill="#0933a3" fill-rule="nonzero" stroke-linejoin="miter" d="M -995.710821 1225.813709 C -996.004493 1225.004614 -997.362725 1219.764762 -998.757667 1214.139627 C -1003.199455 1196.301014 -1010.908344 1177.152439 -1021.296989 1157.888278 C -1027.317263 1146.83065 -1028.381824 1145.058347 -1045.855305 1117.89588 C -1074.121229 1073.973594 -1079.076943 1061.644531 -1078.049091 1037.988141 C -1077.094657 1016.335225 -1069.752859 1000.076273 -1053.894574 984.395246 C -1040.716046 971.334145 -1026.069158 963.821123 -1008.302005 960.970027 C -964.177796 953.803759 -921.41182 982.815585 -912.748498 1025.774664 C -910.729503 1035.792027 -911.170011 1053.014187 -913.702931 1062.376569 C -916.456106 1072.663631 -927.578931 1093.430396 -943.290379 1117.703239 C -971.629722 1161.50994 -982.348747 1183.394027 -990.388017 1213.754344 C -993.508281 1225.505482 -994.793096 1228.433635 -995.710821 1225.813709 Z M -995.710821 1225.813709 " stroke="#5a0000" stroke-width="5.7" stroke-opacity="1" stroke-miterlimit="4"/><path fill="#ffffff" d="M 21.800781 15.5625 C 21.800781 17.402344 20.160156 18.894531 18.136719 18.894531 C 16.113281 18.894531 14.472656 17.402344 14.472656 15.5625 C 14.472656 13.722656 16.113281 12.230469 18.136719 12.230469 C 20.160156 12.230469 21.800781 13.722656 21.800781 15.5625 Z M 21.800781 15.5625 " fill-opacity="1" fill-rule="nonzero"/></svg>